<?xml version="1.0" standalone="no"?>
<!DOCTYPE svg PUBLIC "-//W3C//DTD SVG 20010904//EN"
 "http://www.w3.org/TR/2001/REC-SVG-20010904/DTD/svg10.dtd">
<svg version="1.0" xmlns="http://www.w3.org/2000/svg"
 width="24.000000pt" height="24.000000pt" viewBox="0 0 24.000000 24.000000"
 preserveAspectRatio="xMidYMid meet">

<g transform="translate(0.000000,24.000000) scale(0.100000,-0.100000)"
fill="#000000" stroke="none">
<path d="M43 233 c-7 -2 -13 -13 -13 -24 0 -10 -7 -19 -15 -19 -8 0 -15 -9
-15 -20 0 -19 7 -20 120 -20 113 0 120 1 120 20 0 11 -7 20 -15 20 -8 0 -15 9
-15 19 0 25 -26 34 -53 19 -29 -16 -48 -16 -72 -1 -21 14 -23 14 -42 6z m45
-31 c3 -9 -2 -13 -14 -10 -9 1 -19 9 -22 16 -3 9 2 13 14 10 9 -1 19 -9 22
-16z m102 8 c0 -12 -28 -25 -36 -17 -9 9 6 27 22 27 8 0 14 -5 14 -10z"/>
<path d="M20 65 l0 -65 40 0 40 0 0 65 0 65 -40 0 -40 0 0 -65z"/>
<path d="M140 65 l0 -65 40 0 40 0 0 65 0 65 -40 0 -40 0 0 -65z"/>
</g>
</svg>
